<?xml version="1.0" encoding="UTF-8" standalone="no"?>
<!-- Created with Grafika (https://www.grafika.cc/) -->

<svg width="3240" height="3240" viewBox="0 0 1080 1080" preserveAspectRatio="xMidYMid meet" version="1.1" id="svg12" sodipodi:docname="sq_iconpub.svg" inkscape:version="1.4.3 (0d15f750, 2025-12-25)" xmlns:inkscape="http://www.inkscape.org/namespaces/inkscape" xmlns:sodipodi="http://sodipodi.sourceforge.net/DTD/sodipodi-0.dtd" xmlns="http://www.w3.org/2000/svg" xmlns:svg="http://www.w3.org/2000/svg">
  <defs id="defs12" />
  <sodipodi:namedview id="namedview12" pagecolor="#505050" bordercolor="#ffffff" borderopacity="1" inkscape:showpageshadow="0" inkscape:pageopacity="0" inkscape:pagecheckerboard="1" inkscape:deskcolor="#505050" inkscape:current-layer="svg12" />
  <g transform="matrix(1, 0, 0, 1, 540, 540)" id="g12">
    <g transform="matrix(1, 0, 0, 1, -9.308929443359375, -0.000030517578125)" id="g11">
      <g transform="matrix(1, 0, 0, 1, 519.0439453125, 307.6147766113281)" style="isolation: isolate;" id="g10">
        <path id="path1" style="fill:#70C272;" d="M 82.31 81.570133 L 82.309969 116.13998 L 82.310052 150.71003 L 84.589998 150.71001 C 91.919998 150.71001 101.55 155.82005 106.42 162.29005 C 111.18 168.63005 112.95001 173.89987 112.96001 181.69987 L 129.61543 169.67755 L 129.60842 169.6652 C 125.53365 162.49493 124.62873 154.78159 126.92407 146.8243 C 129.2252 138.8555 134.04178 132.73015 141.20583 128.65892 L 157.05082 119.65444 L 157.68488 120.77018 C 159.39639 123.78188 159.81095 127.09485 158.88476 130.42132 C 157.971 133.74073 155.91896 136.36657 152.90726 138.07808 L 148.10839 140.80521 C 144.2513 142.99714 141.85038 146.10909 140.72463 150.37954 C 139.73993 154.13238 140.02236 157.62004 141.59354 161.0315 L 164.26601 144.66569 L 163.49063 143.30126 C 160.2672 137.62907 159.54684 131.4923 161.35672 125.18423 C 163.1635 118.87792 167.00273 113.99891 172.70601 110.75782 L 188.16856 101.97068 L 188.80262 103.08642 C 190.53708 106.13852 190.94808 109.474 189.98643 112.79595 C 189.03855 116.10596 186.95593 118.72871 183.91937 120.45434 L 181.72512 121.7013 C 178.79733 123.36512 176.98268 125.72852 176.11328 129.03916 L 176.11004 129.041 C 175.46242 131.48529 175.5119 133.76787 176.26861 136.00197 L 199.30998 119.37004 C 210.05998 86.560037 228.69 118.57008 228.69 81.570078 L 192.28996 81.570121 L 155.87991 81.569968 L 155.59007 85.030003 C 155.00007 91.900003 151.95994 98.240018 146.68994 103.54002 C 141.32994 108.94002 135.96996 111.59998 128.55996 112.52998 C 91.889957 117.13998 108.59 81.570133 82.31 81.570133 z M 197.99009 128.30006 L 179.2974 141.81261 L 182.24772 147.00423 C 185.46938 152.67331 186.20198 158.80313 184.41562 165.10194 C 182.6275 171.39765 178.7932 176.27787 173.08061 179.52425 L 157.61806 188.3114 L 156.984 187.19566 C 155.27602 184.19017 154.85862 180.88709 155.77415 177.57079 C 156.69193 174.23676 158.73883 171.60155 161.74432 169.89358 L 163.99765 168.61304 C 166.97206 166.92273 168.79299 164.55572 169.65123 161.27609 C 170.51441 157.96898 170.11758 154.96257 168.42374 151.98195 L 167.49369 150.34537 L 144.77516 166.76814 L 150.57449 176.9731 C 152.35489 180.10602 152.77142 183.57399 151.80265 187.09324 C 150.8432 190.60719 148.71046 193.37346 145.57133 195.15738 L 144.45558 195.79144 L 132.85771 175.38292 L 111.59991 190.74992 C 100.70991 223.17992 82.309927 192.29991 82.309927 228.42991 L 118.77991 228.43001 L 155.25999 228.42998 L 155.27 226.17003 C 155.28 221.36003 157.47004 215.18007 160.94004 210.13007 C 164.51004 204.95007 172.12004 199.85986 178.85004 198.15986 C 213.70004 189.32986 205.77004 228.43006 228.69004 228.43006 L 228.69005 194.14987 L 228.68996 159.8601 L 225.70994 159.51992 C 215.06994 158.29992 205.48003 151.66988 201.13003 142.53988 C 198.59003 137.20988 197.94009 134.27006 197.99009 128.30006 z " transform="matrix(2.432030200958252, 1.3820879459381104, -1.3820879459381104, 2.432030200958252, -683.6542358398438, -899.5562133789062)" />
        <ellipse transform="matrix(1.2968685626983643, 0, 0, 1.2968685626983643, -207.47743225097656, -226.77072143554688)" cx="0" cy="0" rx="47.68" ry="47.68" style="fill:#4DB250;" id="ellipse1" />
        <ellipse transform="matrix(1.2968685626983643, 0, 0, 1.2968685626983643, -451.6422424316406, -619.7405395507812)" cx="0" cy="0" rx="47.68" ry="47.68" style="fill:#4DB250;" id="ellipse2" />
        <ellipse transform="matrix(1.2968685626983643, 0, 0, 1.2968685626983643, -832.153564453125, -387.2071533203125)" cx="0" cy="0" rx="47.68" ry="47.68" style="fill:#4DB250;" id="ellipse3" />
        <ellipse transform="matrix(1.2968685626983643, 0, 0, 1.2968685626983643, -587.906005859375, 4.761405944824219)" cx="0" cy="0" rx="47.68" ry="47.68" style="fill:#4DB250;" id="ellipse4" />
        <ellipse transform="matrix(0.801830530166626, 0, 0, 0.801830530166626, -705.7694702148438, 82.60090637207031)" cx="0" cy="0" rx="47.68" ry="47.68" style="fill:#367D38;" id="ellipse5" />
        <ellipse transform="matrix(0.801830530166626, 0, 0, 0.801830530166626, -109.41719055175781, -126.03579711914062)" cx="0" cy="0" rx="47.68" ry="47.68" style="fill:#367D38;" id="ellipse6" />
        <ellipse transform="matrix(0.801830530166626, 0, 0, 0.801830530166626, -333.8915710449219, -697.7867431640625)" cx="0" cy="0" rx="47.68" ry="47.68" style="fill:#367D38;" id="ellipse7" />
        <ellipse transform="matrix(0.801830530166626, 0, 0, 0.801830530166626, -910.0235595703125, -505.563720703125)" cx="0" cy="0" rx="47.68" ry="47.68" style="fill:#367D38;" id="ellipse8" />
        <g transform="matrix(1, 0, 0, 1, -480.7251281738281, -307.6149597167969)" id="g9" style="stroke-width:0;stroke-dasharray:none;stroke:none;stroke-opacity:1" />
      </g>
    </g>
  </g>
</svg>
